<svg width="38" height="33" viewBox="0 0 38 33" fill="none" xmlns="http://www.w3.org/2000/svg">
<path d="M0.582947 24.4835V3.95583C0.582947 1.93363 2.2147 0.29083 4.23321 0.414225C6.03256 0.524727 8.15789 0.74389 9.79148 1.17301C11.7253 1.68316 14.02 2.76977 15.836 3.7293C16.4014 4.0295 17.0036 4.23577 17.6187 4.35364V32.3089C17.0548 32.1855 16.5106 31.9847 16.0017 31.7122C14.16 30.7324 11.7842 29.5942 9.79148 29.0675C8.1763 28.6421 6.0786 28.4229 4.29399 28.3124C2.25153 28.1835 0.582947 26.5315 0.582947 24.4835ZM20.3813 32.3089C20.9452 32.1855 21.4894 31.9847 21.9983 31.7122C23.84 30.7324 26.2158 29.5942 28.2086 29.0675C29.8237 28.6421 31.9214 28.4229 33.706 28.3124C35.7485 28.1835 37.4171 26.5296 37.4171 24.4817V3.83796C37.4171 1.86365 35.859 0.241104 33.8847 0.311089C31.8054 0.384757 29.216 0.598395 27.2877 1.17669C25.6154 1.67579 23.6687 2.67952 22.083 3.59854C21.5511 3.90559 20.9781 4.13505 20.3813 4.27997V32.3089Z" fill="black"/>
</svg>
