<svg width="37" height="32" viewBox="0 0 37 32" fill="none" xmlns="http://www.w3.org/2000/svg">
<path d="M15.5358 29.7707V5.18312C15.2009 5.06155 14.8716 4.9161 14.5508 4.74586C12.7532 3.79608 10.5854 2.77878 8.8267 2.31469C7.34064 1.92443 5.33603 1.71168 3.55874 1.60252L15.5358 29.7707ZM15.5358 29.7707C13.7588 28.851 11.5408 27.8236 9.59186 27.3084L9.5906 27.3081C7.82873 26.844 5.61165 26.6183 3.80435 26.5064C2.49118 26.4229 1.5 25.3703 1.5 24.1746V3.64692C1.5 2.42681 2.46394 1.53584 3.55832 1.6025L15.5358 29.7707ZM33.0298 26.5064C31.2225 26.6183 29.0054 26.844 27.2435 27.3081L27.2423 27.3084C25.2933 27.8236 23.0753 28.851 21.2983 29.7707V5.0564C21.6252 4.92203 21.9432 4.76584 22.25 4.5887L22.2522 4.58742C23.8154 3.68149 25.6372 2.75179 27.1337 2.30513L27.1356 2.30456C28.8677 1.78512 31.2932 1.57429 33.3549 1.50124L33.3017 0.00218236L33.3549 1.50124C34.4137 1.46371 35.3341 2.33565 35.3341 3.52905V24.1727C35.3341 25.3694 34.342 26.423 33.0298 26.5064ZM33.0298 26.5064C33.03 26.5064 33.0302 26.5064 33.0304 26.5064L33.1231 28.0035M33.0298 26.5064C33.0294 26.5064 33.029 26.5065 33.0286 26.5065L33.1231 28.0035M33.1231 28.0035C31.3385 28.114 29.2408 28.3332 27.6256 28.7586L33.1231 28.0035Z" stroke="black" stroke-width="3"/>
</svg>
