<svg width="38" height="32" viewBox="0 0 38 32" fill="none" xmlns="http://www.w3.org/2000/svg">
<path d="M16.1187 29.7707V5.18312C15.7838 5.06155 15.4545 4.9161 15.1337 4.74586C13.3361 3.79608 11.1684 2.77878 9.40965 2.31469C7.92359 1.92443 5.91897 1.71168 4.14168 1.60252L16.1187 29.7707ZM16.1187 29.7707C14.3418 28.851 12.1237 27.8236 10.1748 27.3084L10.1735 27.3081C8.41167 26.844 6.1946 26.6183 4.3873 26.5064C3.07413 26.4229 2.08295 25.3703 2.08295 24.1746V3.64692C2.08295 2.42681 3.04689 1.53584 4.14126 1.6025L16.1187 29.7707ZM33.6128 26.5064C31.8055 26.6183 29.5884 26.844 27.8265 27.3081L27.8252 27.3084C25.8763 27.8236 23.6583 28.851 21.8813 29.7707V5.0564C22.2082 4.92203 22.5261 4.76584 22.833 4.5887L22.8352 4.58742C24.3983 3.68149 26.2202 2.75179 27.7167 2.30513L27.7186 2.30456C29.4506 1.78512 31.8761 1.57429 33.9378 1.50124L33.8847 0.00218236L33.9378 1.50124C34.9966 1.46371 35.9171 2.33565 35.9171 3.52905V24.1727C35.9171 25.3694 34.925 26.423 33.6128 26.5064ZM33.6128 26.5064C33.613 26.5064 33.6132 26.5064 33.6133 26.5064L33.706 28.0035M33.6128 26.5064C33.6124 26.5064 33.612 26.5065 33.6116 26.5065L33.706 28.0035M33.706 28.0035C31.9214 28.114 29.8237 28.3332 28.2086 28.7586L33.706 28.0035Z" stroke="black" stroke-width="3"/>
</svg>
