<svg width="448" height="438" viewBox="0 0 448 438" fill="none" xmlns="http://www.w3.org/2000/svg">
<path d="M419.589 366.826C414.53 366.826 409.94 365.561 405.818 363.032C401.696 360.502 398.371 357.13 395.841 352.914C393.406 348.605 392.188 343.828 392.188 338.582V294.037C392.188 288.979 393.406 284.342 395.841 280.126C398.371 275.817 401.696 272.398 405.818 269.868C410.034 267.339 414.624 266.074 419.589 266.074C424.741 266.074 429.378 267.339 433.5 269.868C437.716 272.304 441.041 275.629 443.477 279.845C445.913 284.061 447.131 288.791 447.131 294.037V300.501C447.131 300.876 446.896 301.063 446.428 301.063H430.69C430.315 301.063 430.128 300.876 430.128 300.501V295.162C430.128 291.602 429.097 288.651 427.036 286.309C425.069 283.967 422.587 282.796 419.589 282.796C416.872 282.796 414.437 283.92 412.282 286.168C410.221 288.417 409.191 291.04 409.191 294.037V338.582C409.191 341.673 410.221 344.343 412.282 346.591C414.343 348.746 416.779 349.823 419.589 349.823C422.587 349.823 425.069 348.746 427.036 346.591C429.097 344.436 430.128 341.767 430.128 338.582V331.696H420.292C419.823 331.696 419.589 331.462 419.589 330.994V315.256C419.589 314.787 419.823 314.553 420.292 314.553H446.568C446.943 314.553 447.131 314.787 447.131 315.256V338.582C447.131 343.828 445.866 348.605 443.337 352.914C440.901 357.13 437.622 360.502 433.5 363.032C429.378 365.561 424.741 366.826 419.589 366.826Z" fill="#2D2D2D"/>
<path d="M329.957 365.421C329.208 365.421 328.833 365.093 328.833 364.437L328.692 268.744C328.692 267.995 329.067 267.62 329.817 267.62H342.463L366.211 322.984L365.508 268.744C365.508 267.995 365.93 267.62 366.773 267.62H380.684C381.246 267.62 381.527 267.995 381.527 268.744L381.668 364.577C381.668 365.14 381.433 365.421 380.965 365.421H368.599L344.29 313.71L345.273 364.296C345.273 365.046 344.852 365.421 344.009 365.421H329.957Z" fill="#2D2D2D"/>
<path d="M299.892 365.421C299.424 365.421 299.189 365.186 299.189 364.718L299.33 268.182C299.33 267.807 299.517 267.62 299.892 267.62H315.63C316.005 267.62 316.192 267.807 316.192 268.182L316.333 364.718C316.333 365.186 316.145 365.421 315.771 365.421H299.892Z" fill="#2D2D2D"/>
<path d="M231.962 365.421C231.587 365.421 231.4 365.186 231.4 364.718L231.681 268.182C231.681 267.807 231.868 267.62 232.243 267.62H260.628C265.686 267.62 270.323 268.885 274.539 271.414C278.848 273.85 282.267 277.175 284.797 281.391C287.326 285.513 288.591 290.197 288.591 295.443C288.591 298.909 288.075 302.047 287.045 304.857C286.015 307.574 284.797 309.916 283.392 311.883C281.986 313.757 280.722 315.162 279.598 316.099C284.656 321.719 287.186 328.324 287.186 335.912L287.326 364.718C287.326 365.186 287.092 365.421 286.623 365.421H270.745C270.37 365.421 270.183 365.28 270.183 364.999V335.912C270.183 332.539 268.965 329.635 266.529 327.2C264.187 324.67 261.283 323.406 257.817 323.406H248.543L248.403 364.718C248.403 365.186 248.215 365.421 247.84 365.421H231.962ZM248.543 306.544H260.628C263.532 306.544 266.108 305.466 268.356 303.312C270.604 301.157 271.729 298.534 271.729 295.443C271.729 292.445 270.604 289.869 268.356 287.714C266.202 285.559 263.625 284.482 260.628 284.482H248.543V306.544Z" fill="#2D2D2D"/>
<path d="M172.956 365.421C172.581 365.421 172.394 365.186 172.394 364.718L172.534 268.182C172.534 267.807 172.721 267.62 173.096 267.62H218.202C218.577 267.62 218.764 267.854 218.764 268.323V284.061C218.764 284.435 218.577 284.623 218.202 284.623H189.396V306.544H218.202C218.577 306.544 218.764 306.731 218.764 307.106L218.905 322.984C218.905 323.359 218.718 323.546 218.343 323.546H189.396V348.137H218.343C218.718 348.137 218.905 348.371 218.905 348.839V364.858C218.905 365.233 218.718 365.421 218.343 365.421H172.956Z" fill="#2D2D2D"/>
<path d="M130.183 365.421C129.809 365.421 129.621 365.186 129.621 364.718V284.623H111.354C110.886 284.623 110.651 284.389 110.651 283.92L110.792 268.182C110.792 267.807 110.979 267.62 111.354 267.62H164.751C165.219 267.62 165.453 267.807 165.453 268.182V283.92C165.453 284.389 165.266 284.623 164.891 284.623H146.483L146.624 364.718C146.624 365.186 146.437 365.421 146.062 365.421H130.183Z" fill="#2D2D2D"/>
<path d="M58.1108 364.718L75.5351 268.182C75.6287 267.807 75.8629 267.62 76.2377 267.62H96.6128C96.9875 267.62 97.2217 267.807 97.3154 268.182L114.037 364.718C114.131 365.186 113.943 365.421 113.475 365.421H97.8774C97.5027 365.421 97.2685 365.186 97.1748 364.718L95.6291 354.46H76.5187L74.973 364.718C74.8793 365.186 74.6451 365.421 74.2704 365.421H58.6729C58.2982 365.421 58.1108 365.186 58.1108 364.718ZM79.3291 339.425H92.8188L87.0575 299.939L86.2144 294.74L85.6524 299.939L79.3291 339.425Z" fill="#2D2D2D"/>
<path d="M27.5415 366.826C22.3892 366.826 17.7053 365.561 13.4897 363.032C9.36787 360.409 6.08911 356.943 3.65347 352.633C1.21782 348.324 0 343.5 0 338.16L0.140518 294.318C0.140518 289.166 1.3115 284.482 3.65347 280.267C6.08911 275.957 9.36787 272.538 13.4897 270.009C17.7053 267.386 22.3892 266.074 27.5415 266.074C32.6939 266.074 37.3309 267.339 41.4528 269.868C45.5747 272.398 48.8534 275.817 51.2891 280.126C53.7247 284.342 54.9425 289.072 54.9425 294.318V300.782C54.9425 301.157 54.7552 301.344 54.3805 301.344H38.6424C38.2677 301.344 38.0804 301.157 38.0804 300.782V294.318C38.0804 291.227 37.0499 288.557 34.989 286.309C33.0217 284.061 30.5392 282.936 27.5415 282.936C24.1691 282.936 21.5929 284.107 19.813 286.449C18.0331 288.698 17.1432 291.321 17.1432 294.318V338.16C17.1432 341.626 18.1268 344.436 20.0941 346.591C22.155 348.746 24.6375 349.823 27.5415 349.823C30.5392 349.823 33.0217 348.652 34.989 346.31C37.0499 343.874 38.0804 341.158 38.0804 338.16V331.696C38.0804 331.321 38.2677 331.134 38.6424 331.134H54.521C54.8957 331.134 55.0831 331.321 55.0831 331.696V338.16C55.0831 343.5 53.8184 348.324 51.2891 352.633C48.8534 356.943 45.5747 360.409 41.4528 363.032C37.3309 365.561 32.6939 366.826 27.5415 366.826Z" fill="#2D2D2D"/>
<path d="M319.296 436.94L311.948 427.716V436.94H306.476V408.017H311.948V424.472L319.218 415.287H326.331L316.795 426.153L326.409 436.94H319.296Z" fill="#E54A67"/>
<path d="M292.635 414.974C295.214 414.974 297.299 415.795 298.888 417.437C300.478 419.052 301.273 421.319 301.273 424.238V436.94H295.801V424.98C295.801 423.26 295.371 421.945 294.511 421.033C293.651 420.095 292.479 419.625 290.993 419.625C289.482 419.625 288.283 420.095 287.397 421.033C286.538 421.945 286.108 423.26 286.108 424.98V436.94H280.636V415.287H286.108V417.984C286.837 417.046 287.762 416.316 288.883 415.795C290.029 415.248 291.28 414.974 292.635 414.974Z" fill="#E54A67"/>
<path d="M272.533 412.707C271.569 412.707 270.761 412.408 270.109 411.809C269.484 411.183 269.171 410.414 269.171 409.502C269.171 408.591 269.484 407.835 270.109 407.236C270.761 406.61 271.569 406.298 272.533 406.298C273.497 406.298 274.292 406.61 274.917 407.236C275.568 407.835 275.894 408.591 275.894 409.502C275.894 410.414 275.568 411.183 274.917 411.809C274.292 412.408 273.497 412.707 272.533 412.707ZM275.23 415.287V436.94H269.758V415.287H275.23Z" fill="#E54A67"/>
<path d="M259.427 418.648C260.131 417.502 261.043 416.603 262.163 415.951C263.31 415.3 264.613 414.974 266.072 414.974V420.72H264.626C262.906 420.72 261.603 421.124 260.717 421.932C259.857 422.739 259.427 424.146 259.427 426.153V436.94H253.956V415.287H259.427V418.648Z" fill="#E54A67"/>
<path d="M226.059 426.035C226.059 423.847 226.489 421.905 227.349 420.212C228.235 418.518 229.433 417.215 230.945 416.303C232.456 415.391 234.137 414.935 235.987 414.935C237.394 414.935 238.736 415.248 240.012 415.873C241.289 416.473 242.305 417.28 243.061 418.297V408.017H248.611V436.94H243.061V433.735C242.384 434.804 241.433 435.663 240.208 436.315C238.983 436.966 237.563 437.292 235.948 437.292C234.124 437.292 232.456 436.823 230.945 435.885C229.433 434.947 228.235 433.631 227.349 431.937C226.489 430.218 226.059 428.25 226.059 426.035ZM243.1 426.114C243.1 424.785 242.84 423.651 242.318 422.713C241.797 421.749 241.094 421.02 240.208 420.524C239.322 420.003 238.371 419.743 237.355 419.743C236.338 419.743 235.4 419.99 234.541 420.485C233.681 420.98 232.977 421.71 232.43 422.674C231.909 423.612 231.648 424.733 231.648 426.035C231.648 427.338 231.909 428.485 232.43 429.475C232.977 430.439 233.681 431.182 234.541 431.703C235.426 432.224 236.365 432.484 237.355 432.484C238.371 432.484 239.322 432.237 240.208 431.742C241.094 431.221 241.797 430.491 242.318 429.553C242.84 428.589 243.1 427.443 243.1 426.114Z" fill="#E54A67"/>
<path d="M208.721 436.94L205.75 434.009C203.223 436.276 200.135 437.409 196.487 437.409C194.481 437.409 192.709 437.07 191.172 436.393C189.66 435.689 188.488 434.712 187.654 433.462C186.82 432.185 186.403 430.713 186.403 429.045C186.403 427.247 186.911 425.632 187.928 424.198C188.944 422.765 190.442 421.606 192.422 420.72C191.719 419.86 191.211 419.039 190.898 418.258C190.585 417.45 190.429 416.59 190.429 415.678C190.429 414.427 190.755 413.307 191.406 412.317C192.058 411.3 192.983 410.506 194.181 409.932C195.406 409.359 196.826 409.073 198.442 409.073C200.083 409.073 201.49 409.385 202.663 410.011C203.835 410.636 204.708 411.47 205.281 412.512C205.855 413.554 206.102 414.714 206.024 415.991H200.708C200.735 415.131 200.526 414.479 200.083 414.036C199.64 413.567 199.041 413.333 198.285 413.333C197.556 413.333 196.943 413.554 196.448 413.997C195.979 414.414 195.745 414.961 195.745 415.639C195.745 416.29 195.94 416.942 196.331 417.593C196.722 418.218 197.36 419 198.246 419.938L205.125 426.739C205.177 426.687 205.216 426.635 205.242 426.583C205.268 426.531 205.294 426.478 205.32 426.426L207.548 422.713H213.255L210.519 427.521C209.998 428.537 209.437 429.501 208.838 430.413L215.444 436.94H208.721ZM196.644 432.875C198.78 432.875 200.669 432.12 202.311 430.608L195.588 423.964C193.061 425.084 191.797 426.674 191.797 428.732C191.797 429.905 192.24 430.895 193.126 431.703C194.012 432.485 195.184 432.875 196.644 432.875Z" fill="#E54A67"/>
<path d="M150.522 426.035C150.522 423.847 150.952 421.905 151.812 420.212C152.698 418.518 153.897 417.215 155.408 416.303C156.919 415.391 158.6 414.935 160.45 414.935C161.857 414.935 163.199 415.248 164.476 415.873C165.753 416.473 166.769 417.28 167.524 418.297V408.017H173.075V436.94H167.524V433.735C166.847 434.804 165.896 435.663 164.671 436.315C163.447 436.966 162.026 437.292 160.411 437.292C158.587 437.292 156.919 436.823 155.408 435.885C153.897 434.947 152.698 433.631 151.812 431.937C150.952 430.218 150.522 428.25 150.522 426.035ZM167.564 426.114C167.564 424.785 167.303 423.651 166.782 422.713C166.261 421.749 165.557 421.02 164.671 420.524C163.785 420.003 162.834 419.743 161.818 419.743C160.802 419.743 159.864 419.99 159.004 420.485C158.144 420.98 157.441 421.71 156.893 422.674C156.372 423.612 156.112 424.733 156.112 426.035C156.112 427.338 156.372 428.485 156.893 429.475C157.441 430.439 158.144 431.182 159.004 431.703C159.89 432.224 160.828 432.484 161.818 432.484C162.834 432.484 163.785 432.237 164.671 431.742C165.557 431.221 166.261 430.491 166.782 429.553C167.303 428.589 167.564 427.443 167.564 426.114Z" fill="#E54A67"/>
<path d="M136.621 437.292C134.536 437.292 132.66 436.836 130.992 435.924C129.325 434.986 128.009 433.67 127.045 431.976C126.107 430.283 125.638 428.328 125.638 426.114C125.638 423.899 126.12 421.945 127.084 420.251C128.074 418.557 129.416 417.254 131.11 416.342C132.803 415.404 134.692 414.935 136.777 414.935C138.861 414.935 140.751 415.404 142.444 416.342C144.138 417.254 145.467 418.557 146.431 420.251C147.421 421.945 147.916 423.899 147.916 426.114C147.916 428.328 147.408 430.283 146.392 431.976C145.402 433.67 144.047 434.986 142.327 435.924C140.633 436.836 138.731 437.292 136.621 437.292ZM136.621 432.524C137.611 432.524 138.536 432.289 139.396 431.82C140.282 431.325 140.985 430.595 141.506 429.631C142.027 428.667 142.288 427.495 142.288 426.114C142.288 424.055 141.741 422.479 140.646 421.384C139.578 420.264 138.262 419.704 136.699 419.704C135.135 419.704 133.819 420.264 132.751 421.384C131.709 422.479 131.188 424.055 131.188 426.114C131.188 428.172 131.696 429.762 132.712 430.882C133.754 431.976 135.057 432.524 136.621 432.524Z" fill="#E54A67"/>
<path d="M111.696 437.292C109.612 437.292 107.736 436.836 106.068 435.924C104.4 434.986 103.085 433.67 102.12 431.976C101.182 430.283 100.713 428.328 100.713 426.114C100.713 423.899 101.195 421.945 102.16 420.251C103.15 418.557 104.492 417.254 106.185 416.342C107.879 415.404 109.768 414.935 111.853 414.935C113.937 414.935 115.826 415.404 117.52 416.342C119.214 417.254 120.543 418.557 121.507 420.251C122.497 421.945 122.992 423.899 122.992 426.114C122.992 428.328 122.484 430.283 121.468 431.976C120.477 433.67 119.122 434.986 117.403 435.924C115.709 436.836 113.807 437.292 111.696 437.292ZM111.696 432.524C112.686 432.524 113.611 432.289 114.471 431.82C115.357 431.325 116.061 430.595 116.582 429.631C117.103 428.667 117.364 427.495 117.364 426.114C117.364 424.055 116.816 422.479 115.722 421.384C114.654 420.264 113.338 419.704 111.774 419.704C110.211 419.704 108.895 420.264 107.827 421.384C106.785 422.479 106.263 424.055 106.263 426.114C106.263 428.172 106.772 429.762 107.788 430.882C108.83 431.976 110.133 432.524 111.696 432.524Z" fill="#E54A67"/>
<path d="M98.5351 419.782H94.7439V436.94H89.1938V419.782H86.7314V415.287H89.1938V414.193C89.1938 411.535 89.9494 409.581 91.4607 408.33C92.972 407.079 95.252 406.493 98.3006 406.571V411.183C96.9717 411.157 96.0467 411.379 95.5256 411.848C95.0044 412.317 94.7439 413.163 94.7439 414.388V415.287H98.5351V419.782Z" fill="#E54A67"/>
<path d="M108.917 58.2581C117.054 72.0158 134.543 88.4741 134.543 88.4741C134.543 88.4741 121.651 71.9157 114.279 56.1552C111.711 50.4053 109.68 43.8672 108.597 38.0979C107.089 30.1191 110.645 21.4039 119.08 18.4999C132.295 13.9549 139.989 30.6069 144.392 39.6937C147.167 45.4145 149.599 51.4164 152.041 57.4408L152.752 62.1958L154.189 57.4537C156.431 50.0596 159.319 42.7915 162.663 35.8852C166.09 29.0338 170.005 22.3729 175.08 17.0785C177.612 14.4588 180.41 12.1911 183.43 10.6793C186.45 9.16435 189.671 8.46984 192.885 8.70565C202.195 9.35494 209.466 15.9189 209.553 25.4837C209.605 31.0559 207.415 36.4343 204.546 41.2119C191.806 62.4219 170.632 75.3882 152.364 91.3361C131.213 109.8 106.989 131.469 100.515 159.986C98.5803 168.133 98.8969 177.139 102.137 185.021C103.746 188.971 105.894 192.541 108.559 195.839C111.372 199.101 114.632 201.689 118.227 203.808C121.845 205.878 125.799 207.293 129.827 208.062C133.861 208.831 137.967 208.86 141.956 208.443C149.942 207.555 157.575 204.88 164.336 200.91C157.165 204.04 149.444 205.856 141.805 206.017C134.175 206.147 126.616 204.273 120.543 200.103C117.536 198.029 114.812 195.399 112.681 192.605C110.607 189.672 108.878 186.348 107.754 182.953C105.448 176.111 105.722 168.746 107.654 161.759C109.592 154.743 113.139 148.095 117.345 141.883C126.597 128.216 138.8 117.853 151.337 107.323C164.82 95.9974 179.247 85.8479 192.772 74.6162C203.8 65.4616 214.599 53.8714 219.909 40.3656C230.476 11.8519 204.802 -9.66816 180.071 4.44815C176.191 6.66412 173.009 9.64566 170.347 12.863C165.05 19.3462 161.383 26.6208 158.505 34.0633C156.447 39.3868 154.79 44.8008 153.476 50.3084C152.843 45.9378 151.909 41.6157 150.73 37.313C148.843 30.8815 146.508 24.45 142.674 18.4191C140.755 15.4117 138.458 12.4722 135.389 9.92992C132.359 7.43615 128.25 5.29448 123.67 5.08128C119.102 4.7841 114.835 6.30556 111.469 8.29864C109.799 9.30971 108.19 10.3983 106.633 11.8778C105.131 13.2765 103.8 14.9369 102.709 16.7264C100.489 20.3217 99.4589 24.4726 99.278 28.3425C99.0907 32.235 99.656 35.9369 100.544 39.3997C102.344 46.3481 105.445 52.4953 108.917 58.2581Z" fill="#E54A67"/>
<path d="M95.5825 216.532C96.3416 225.554 115.969 232.67 126.535 232.67H323.572C334.138 232.67 353.766 225.554 354.528 216.532H95.5825Z" fill="#2D2D2D"/>
<path d="M238.409 88.4257C241.753 88.8456 244.802 86.4778 245.222 83.1345C245.642 79.7911 243.274 76.7417 239.931 76.3218C236.587 75.9019 233.538 78.2697 233.118 81.613C232.698 84.9531 235.066 88.0025 238.409 88.4257Z" fill="#2D2D2D"/>
<path d="M237.866 92.7349C179.783 85.4344 126.751 126.029 118.353 183.699L331.154 210.443C337.285 152.489 295.947 100.035 237.866 92.7349ZM314.262 165.487C313.836 165.568 313.371 165.332 313.109 164.944C309.766 159.967 306.448 155.108 302.95 150.402C302.052 149.239 301.164 148.079 300.295 146.903L297.559 143.479C295.74 141.195 293.834 138.992 291.906 136.812C288.045 132.451 283.93 128.345 279.614 124.466C275.279 120.599 270.709 117.036 265.863 113.68C265.362 113.341 265.162 112.691 265.411 112.23C265.614 111.852 266.07 111.722 266.499 111.874C272.039 113.88 277.36 116.985 282.292 120.638C287.248 124.285 291.793 128.555 295.95 133.139C298.021 135.446 299.955 137.862 301.842 140.304C303.648 142.807 305.421 145.324 307.017 147.944C310.224 153.16 312.951 158.636 314.873 164.285C315.057 164.848 314.786 165.387 314.262 165.487Z" fill="#2D2D2D"/>
<path d="M76.9603 418.088H59.1743V424.549H76.9603V418.088Z" fill="#E54A67"/>
<path d="M390.346 418.088H372.56V424.549H390.346V418.088Z" fill="#E54A67"/>
</svg>
