<svg width="158" height="142" viewBox="0 0 158 142" fill="none" xmlns="http://www.w3.org/2000/svg">
<path d="M8.35064 35.4398C13.3006 43.8089 23.9394 53.8209 23.9394 53.8209C23.9394 53.8209 16.0969 43.748 11.6126 34.1605C10.0504 30.6627 8.81439 26.6855 8.1561 23.1759C7.23842 18.3222 9.40193 13.0205 14.5327 11.2539C22.5717 8.48907 27.2525 18.6189 29.9308 24.1466C31.6188 27.6267 33.0985 31.2778 34.5841 34.9426L35.0164 37.8352L35.8908 34.9505C37.2546 30.4525 39.0114 26.0311 41.0452 21.8298C43.1301 17.6619 45.5117 13.61 48.5988 10.3893C50.1394 8.79561 51.8412 7.41614 53.6785 6.4965C55.5158 5.57489 57.475 5.1524 59.4302 5.29585C65.0935 5.69083 69.5168 9.68382 69.5699 15.5023C69.6013 18.8921 68.2691 22.1639 66.5241 25.0702C58.7739 37.9727 45.8929 45.8604 34.7806 55.5619C21.9134 66.7942 7.17747 79.9757 3.23951 97.3232C2.06244 102.279 2.25504 107.758 4.22599 112.552C5.20459 114.956 6.51136 117.127 8.13253 119.133C9.84409 121.118 11.8268 122.692 14.0139 123.981C16.2148 125.241 18.62 126.101 21.0704 126.569C23.5248 127.037 26.0224 127.054 28.4492 126.801C33.3068 126.261 37.9502 124.634 42.0631 122.218C37.7007 124.123 33.0042 125.227 28.3568 125.325C23.7154 125.404 19.1172 124.264 15.4229 121.727C13.5934 120.466 11.9369 118.866 10.6399 117.166C9.37837 115.382 8.32702 113.36 7.64318 111.295C6.24014 107.133 6.40721 102.652 7.58232 98.402C8.76135 94.1339 10.919 90.0899 13.4775 86.3111C19.1054 77.9969 26.5293 71.693 34.1557 65.287C42.3578 58.3975 51.1337 52.2233 59.3614 45.3908C66.0701 39.8218 72.6393 32.7712 75.8698 24.5553C82.2975 7.20981 66.6793 -5.88137 51.6349 2.70591C49.2748 4.05394 47.3393 5.86768 45.72 7.82488C42.4974 11.7687 40.267 16.194 38.5161 20.7215C37.2644 23.9599 36.2564 27.2534 35.4566 30.6038C35.0714 27.9451 34.5035 25.3158 33.7863 22.6984C32.6387 18.7859 31.2179 14.8735 28.8854 11.2048C27.7182 9.3753 26.3211 7.5871 24.4543 6.04061C22.611 4.52359 20.1115 3.22076 17.325 3.09106C14.5464 2.91028 11.9506 3.83582 9.90304 5.04826C8.88711 5.66332 7.9085 6.32554 6.96134 7.22554C6.04759 8.0764 5.238 9.08644 4.57381 10.1751C3.22382 12.3622 2.59694 14.8873 2.4869 17.2414C2.37293 19.6093 2.71681 21.8612 3.2572 23.9678C4.35173 28.1946 6.2382 31.9341 8.35064 35.4398Z" fill="#E54A67"/>
<path d="M0.23877 131.721C0.700557 137.21 12.6402 141.539 19.0679 141.539H138.93C145.358 141.539 157.298 137.21 157.761 131.721H0.23877Z" fill="#2D2D2D"/>
<path d="M87.1236 53.7914C89.1574 54.0469 91.0124 52.6065 91.2679 50.5726C91.5233 48.5388 90.0829 46.6838 88.0491 46.4283C86.0153 46.1729 84.1603 47.6133 83.9048 49.6471C83.6494 51.679 85.0898 53.534 87.1236 53.7914Z" fill="#2D2D2D"/>
<path d="M86.7934 56.4128C51.4598 51.9718 19.1995 76.6666 14.0903 111.749L143.542 128.017C147.272 92.7624 122.125 60.8538 86.7934 56.4128ZM133.267 100.67C133.008 100.719 132.725 100.575 132.565 100.34C130.532 97.3114 128.513 94.356 126.385 91.4929C125.839 90.7855 125.299 90.08 124.77 89.3648L123.106 87.2818C121.999 85.8925 120.84 84.5524 119.667 83.2259C117.319 80.5731 114.815 78.0755 112.19 75.7155C109.553 73.3633 106.772 71.1959 103.825 69.1542C103.52 68.9479 103.398 68.5529 103.549 68.2719C103.673 68.042 103.95 67.9634 104.212 68.0557C107.582 69.276 110.818 71.1645 113.819 73.3869C116.833 75.6055 119.598 78.2033 122.127 80.9917C123.387 82.3947 124.564 83.8646 125.711 85.3502C126.81 86.8731 127.889 88.4039 128.859 89.9975C130.811 93.1711 132.469 96.5019 133.638 99.9387C133.75 100.281 133.585 100.609 133.267 100.67Z" fill="#2D2D2D"/>
</svg>
