<svg width="36" height="36" viewBox="0 0 36 36" fill="none" xmlns="http://www.w3.org/2000/svg">
<path fill-rule="evenodd" clip-rule="evenodd" d="M10 0C9.46961 0.000113275 8.96099 0.210901 8.586 0.586L0.586 8.586C0.23262 8.93816 0.0236136 9.40967 0 9.908M0 10.016V30C0 31.5913 0.632141 33.1174 1.75736 34.2426C2.88258 35.3679 4.4087 36 6 36H30C31.5913 36 33.1174 35.3679 34.2426 34.2426C35.3679 33.1174 36 31.5913 36 30V10.016L35.998 9.908C35.9749 9.40994 35.7666 8.93847 35.414 8.586L27.414 0.586C27.039 0.210901 26.5304 0.000113275 26 0H10M29.172 8L25.172 4H10.828L6.828 8H29.172ZM8 18C8 17.4696 8.21071 16.9609 8.58579 16.5858C8.96086 16.2107 9.46957 16 10 16H18C18.5304 16 19.0391 16.2107 19.4142 16.5858C19.7893 16.9609 20 17.4696 20 18C20 18.5304 19.7893 19.0391 19.4142 19.4142C19.0391 19.7893 18.5304 20 18 20H10C9.46957 20 8.96086 19.7893 8.58579 19.4142C8.21071 19.0391 8 18.5304 8 18Z" fill="black"/>
</svg>
