<svg width="30" height="33" viewBox="0 0 30 33" fill="none" xmlns="http://www.w3.org/2000/svg">
<path d="M6.16333 9.31416C6.16333 11.5994 7.07242 13.7911 8.6906 15.407C10.3088 17.0229 12.5035 17.9308 14.792 17.9308C17.0805 17.9308 19.2752 17.0229 20.8934 15.407C22.5116 13.7911 23.4206 11.5994 23.4206 9.31416C23.4206 7.0289 22.5116 4.83724 20.8934 3.22131C19.2752 1.60539 17.0805 0.697571 14.792 0.697571C12.5035 0.697571 10.3088 1.60539 8.6906 3.22131C7.07242 4.83724 6.16333 7.0289 6.16333 9.31416ZM27.1186 32.7021H1.23267C0.905742 32.7021 0.592209 32.5724 0.36104 32.3415C0.12987 32.1107 0 31.7976 0 31.4711V27.7783C0 26.146 0.649349 24.5805 1.8052 23.4263C2.96105 22.272 4.52871 21.6236 6.16333 21.6236H23.4206C25.0553 21.6236 26.6229 22.272 27.7788 23.4263C28.9346 24.5805 29.584 26.146 29.584 27.7783V31.4711C29.584 31.7976 29.4541 32.1107 29.2229 32.3415C28.9918 32.5724 28.6782 32.7021 28.3513 32.7021H27.1186Z" fill="black"/>
</svg>
