<svg width="40" height="36" viewBox="0 0 40 36" fill="none" xmlns="http://www.w3.org/2000/svg">
<path d="M3.49894 31.11C5.89662 34 10.3563 34 19.2797 34H20.7183C29.6417 34 34.1034 34 36.5011 31.11M3.49894 31.11C1.10125 28.218 1.92446 23.83 3.56887 15.05C4.73774 8.81 5.32118 5.688 7.54103 3.844M36.5011 31.11C38.8988 28.218 38.0755 23.83 36.4311 15.05C35.2623 8.81 34.6768 5.688 32.457 3.844M32.457 3.844C30.2391 2 27.0642 2 20.7203 2H19.2777C12.9338 2 9.76089 2 7.54103 3.844" stroke="black" stroke-width="3"/>
<path d="M14.3445 10C14.7573 11.1711 15.5228 12.1851 16.5356 12.9024C17.5483 13.6197 18.7584 14.0049 19.999 14.0049C21.2396 14.0049 22.4497 13.6197 23.4625 12.9024C24.4752 12.1851 25.2408 11.1711 25.6536 10" stroke="black" stroke-width="3" stroke-linecap="round"/>
</svg>
