<svg width="37" height="32" viewBox="0 0 37 32" fill="none" xmlns="http://www.w3.org/2000/svg">
<path fill-rule="evenodd" clip-rule="evenodd" d="M5.657 1.382C3.99261 2.766 3.55303 5.106 2.67588 9.788L1.17733 17.788C-0.0554803 24.372 -0.670886 27.664 1.12538 29.832C2.92364 32 6.26841 32 12.9619 32H24.0313C30.7248 32 34.0696 32 35.8678 29.832C37.6661 27.664 37.0467 24.372 35.8159 17.788L34.3173 9.788C33.4382 5.108 33.0006 2.766 31.3362 1.382C29.6718 0 27.2921 0 22.5327 0H14.4605C9.7011 0 7.3214 0 5.657 1.382ZM14.2567 7.502C14.5665 8.38007 15.1408 9.14036 15.9003 9.67813C16.6598 10.2159 17.5673 10.5047 18.4976 10.5047C19.4279 10.5047 20.3354 10.2159 21.0949 9.67813C21.8544 9.14036 22.4287 8.38007 22.7385 7.502C22.8782 7.13699 23.1548 6.841 23.5093 6.67706C23.8638 6.51312 24.2683 6.49417 24.6365 6.62425C25.0048 6.75433 25.3078 7.02317 25.481 7.37352C25.6541 7.72387 25.6839 8.12805 25.5638 8.5C25.0472 9.96268 24.0902 11.2291 22.8248 12.1248C21.5593 13.0205 20.0475 13.5015 18.4976 13.5015C16.9477 13.5015 15.4359 13.0205 14.1704 12.1248C12.905 11.2291 11.948 9.96268 11.4314 8.5C11.3621 8.31345 11.3305 8.11495 11.3386 7.91606C11.3466 7.71717 11.3941 7.52188 11.4784 7.34156C11.5626 7.16124 11.6818 6.9995 11.8291 6.86577C11.9764 6.73205 12.1488 6.629 12.3363 6.56264C12.5238 6.49628 12.7226 6.46794 12.9211 6.47926C13.1197 6.49058 13.314 6.54134 13.4927 6.62859C13.6714 6.71583 13.831 6.83781 13.9622 6.98742C14.0934 7.13703 14.1935 7.31327 14.2567 7.502Z" fill="black"/>
</svg>
