<svg width="30" height="32" viewBox="0 0 30 32" fill="none" xmlns="http://www.w3.org/2000/svg">
<path d="M15 16.5926C16.9615 16.5926 18.8427 15.8434 20.2298 14.5098C21.6168 13.1762 22.396 11.3675 22.396 9.48148C22.396 7.5955 21.6168 5.78676 20.2298 4.45317C18.8427 3.11957 16.9615 2.37037 15 2.37037C13.0385 2.37037 11.1573 3.11957 9.77024 4.45317C8.38322 5.78676 7.604 7.5955 7.604 9.48148C7.604 11.3675 8.38322 13.1762 9.77024 14.5098C11.1573 15.8434 13.0385 16.5926 15 16.5926ZM15 18.963C12.3846 18.963 9.87634 17.964 8.02699 16.1859C6.17763 14.4078 5.13867 11.9961 5.13867 9.48148C5.13867 6.96684 6.17763 4.55518 8.02699 2.77706C9.87634 0.998939 12.3846 0 15 0C17.6154 0 20.1236 0.998939 21.973 2.77706C23.8224 4.55518 24.8613 6.96684 24.8613 9.48148C24.8613 11.9961 23.8224 14.4078 21.973 16.1859C20.1236 17.964 17.6154 18.963 15 18.963ZM27.3267 30.8148V27.2593C27.3267 26.3163 26.937 25.4119 26.2435 24.7451C25.55 24.0783 24.6094 23.7037 23.6287 23.7037H6.37134C5.39057 23.7037 4.44997 24.0783 3.75646 24.7451C3.06295 25.4119 2.67334 26.3163 2.67334 27.2593V30.8148C2.67334 31.1291 2.54347 31.4306 2.3123 31.6529C2.08113 31.8751 1.7676 32 1.44067 32C1.11375 32 0.800217 31.8751 0.569047 31.6529C0.337878 31.4306 0.208008 31.1291 0.208008 30.8148V27.2593C0.208008 25.6876 0.857357 24.1803 2.0132 23.069C3.16905 21.9577 4.73672 21.3333 6.37134 21.3333H23.6287C25.2633 21.3333 26.8309 21.9577 27.9868 23.069C29.1426 24.1803 29.792 25.6876 29.792 27.2593V30.8148C29.792 31.1291 29.6621 31.4306 29.4309 31.6529C29.1998 31.8751 28.8862 32 28.5593 32C28.2324 32 27.9189 31.8751 27.6877 31.6529C27.4565 31.4306 27.3267 31.1291 27.3267 30.8148Z" fill="black"/>
</svg>
